<?xml version="1.0" encoding="UTF-8" standalone="no"?>
<svg
   width="642.26"
   height="248.08"
   version="1.1"
   viewBox="0 0 642.26 248.08"
   id="svg6"
   sodipodi:docname="logo4.svg"
   inkscape:version="1.4.3 (0d15f75, 2025-12-25)"
   xmlns:inkscape="http://www.inkscape.org/namespaces/inkscape"
   xmlns:sodipodi="http://sodipodi.sourceforge.net/DTD/sodipodi-0.dtd"
   xmlns="http://www.w3.org/2000/svg"
   xmlns:svg="http://www.w3.org/2000/svg">
  <defs
     id="defs6" />
  <sodipodi:namedview
     id="namedview6"
     pagecolor="#ffffff"
     bordercolor="#000000"
     borderopacity="0.25"
     inkscape:showpageshadow="2"
     inkscape:pageopacity="0.0"
     inkscape:pagecheckerboard="0"
     inkscape:deskcolor="#d1d1d1"
     inkscape:zoom="0.43859272"
     inkscape:cx="245.1021"
     inkscape:cy="-27.360235"
     inkscape:window-width="944"
     inkscape:window-height="665"
     inkscape:window-x="0"
     inkscape:window-y="38"
     inkscape:window-maximized="0"
     inkscape:current-layer="g6" />
  <g
     transform="translate(-414.88 -1097.2)"
     id="g6">
    <path
       style="font-weight:700;font-size:196px;font-family:Charter;fill:#fff7c7;stroke-width:1.3333"
       d="m 660.27795,1285.3922 0.66993,0.096 q 5.93359,0.2871 8.80468,0.2871 17.22657,0 25.07422,-6.2207 7.84766,-6.3164 7.84766,-20.1933 0,-12.5371 -7.36914,-18.6621 -7.36914,-6.2208 -22.10742,-6.2208 -4.30664,0 -7.17774,0.096 -2.87109,0.096 -5.74219,0.2871 z m 0.0957,-61.9199 q 0.76562,0.096 1.91406,0.1914 1.14844,0 3.34961,0 15.3125,0 22.49023,-6.125 7.27344,-6.2207 7.27344,-19.332 0,-11.4844 -6.69922,-17.0352 -6.69922,-5.5508 -20.57617,-5.5508 -2.29687,0 -7.27344,0.3828 h -0.57422 z m -40.29102,-58.3789 h 58.85742 q 21.62891,0 32.53907,7.7519 10.91015,7.6563 10.91015,22.9688 0,11.5801 -7.08203,19.4277 -7.08203,7.752 -20.86328,11.3887 16.84375,0.2871 26.22266,8.6133 9.3789,8.3261 9.3789,22.9687 0,18.5664 -12.72851,28.5196 -12.72852,9.8574 -36.6543,9.8574 h -60.58008 v -9.5703 l 11.58008,-1.0528 3.1582,-3.0625 v -104.5078 l -3.1582,-2.7754 -11.58008,-0.957 z m 174.6582,44.1191 q -10.71875,0 -16.74804,10.2403 -6.0293,10.2402 -6.0293,28.7109 0,18.7578 5.93359,29.1894 6.0293,10.4317 16.65235,10.4317 11.10156,0 17.13086,-10.1445 6.02929,-10.1446 6.02929,-28.9024 0,-18.6621 -6.125,-29.0937 -6.02929,-10.4317 -16.84375,-10.4317 z m 0.76563,-10.4316 q 22.58594,0 35.88867,13.6855 13.30274,13.5899 13.30274,36.8457 0,22.0118 -13.87696,35.4102 -13.87695,13.3984 -36.8457,13.3984 -22.10742,0 -35.69727,-13.4941 -13.49414,-13.5899 -13.49414,-35.6973 0,-22.6816 13.87696,-36.3672 13.87695,-13.7812 36.8457,-13.7812 z m 60.38867,97.8086 v -9.5703 l 11.96289,-1.0528 3.34961,-3.0625 v -104.5078 l -2.77539,-2.7754 -12.53711,-0.957 v -9.5703 h 56.46485 v 9.5703 l -11.9629,0.957 -3.1582,2.7754 v 106.8047 h 37.70703 l 2.48828,-3.1582 2.9668,-23.8301 h 14.54688 v 38.377 z m 88.22479,-131.4961 h 113.02537 v 34.6445 h -13.4941 l -3.3496,-20.959 -2.8711,-2.4883 h -23.543 v 106.6133 l 3.3496,3.0625 12.7285,1.0528 v 9.5703 h -58.66598 v -9.5703 l 12.82422,-1.0528 3.25391,-3.0625 v -106.6133 h -23.44727 l -2.9668,2.4883 -3.34961,20.959 h -13.49414 z"
       id="text1"
       aria-label="BoLT" />
    <path
       style="font-weight:700;font-size:196px;font-family:Charter;fill:#688d96;stroke-width:1.3333"
       d="m 654.38885,1285.3922 0.66993,0.096 q 5.93359,0.2871 8.80468,0.2871 17.22657,0 25.07422,-6.2207 7.84766,-6.3164 7.84766,-20.1933 0,-12.5371 -7.36914,-18.6621 -7.36914,-6.2208 -22.10742,-6.2208 -4.30664,0 -7.17774,0.096 -2.87109,0.096 -5.74219,0.2871 z m 0.0957,-61.9199 q 0.76562,0.096 1.91406,0.1914 1.14844,0 3.34961,0 15.3125,0 22.49023,-6.125 7.27344,-6.2207 7.27344,-19.332 0,-11.4844 -6.69922,-17.0352 -6.69922,-5.5508 -20.57617,-5.5508 -2.29687,0 -7.27344,0.3828 h -0.57422 z m -40.29102,-58.3789 h 58.85742 q 21.62891,0 32.53907,7.7519 10.91015,7.6563 10.91015,22.9688 0,11.5801 -7.08203,19.4277 -7.08203,7.752 -20.86328,11.3887 16.84375,0.2871 26.22266,8.6133 9.3789,8.3261 9.3789,22.9687 0,18.5664 -12.72851,28.5196 -12.72852,9.8574 -36.6543,9.8574 h -60.58008 v -9.5703 l 11.58008,-1.0528 3.1582,-3.0625 v -104.5078 l -3.1582,-2.7754 -11.58008,-0.957 z m 174.65821,44.1191 q -10.71875,0 -16.74805,10.2403 -6.0293,10.2402 -6.0293,28.7109 0,18.7578 5.9336,29.1894 6.02929,10.4317 16.65234,10.4317 11.10156,0 17.13086,-10.1445 6.0293,-10.1446 6.0293,-28.9024 0,-18.6621 -6.125,-29.0937 -6.0293,-10.4317 -16.84375,-10.4317 z m 0.76562,-10.4316 q 22.58594,0 35.88867,13.6855 13.30274,13.5899 13.30274,36.8457 0,22.0118 -13.87696,35.4102 -13.87695,13.3984 -36.8457,13.3984 -22.10742,0 -35.69727,-13.4941 -13.49414,-13.5899 -13.49414,-35.6973 0,-22.6816 13.87696,-36.3672 13.87695,-13.7812 36.8457,-13.7812 z m 60.38867,97.8086 v -9.5703 l 11.96289,-1.0528 3.34961,-3.0625 v -104.5078 l -2.77539,-2.7754 -12.53711,-0.957 v -9.5703 h 56.46485 v 9.5703 l -11.96289,0.957 -3.15821,2.7754 v 106.8047 h 37.70703 l 2.48828,-3.1582 2.9668,-23.8301 h 14.54688 v 38.377 z m 88.22479,-131.4961 h 113.02537 v 34.6445 h -13.4941 l -3.3496,-20.959 -2.8711,-2.4883 h -23.543 v 106.6133 l 3.3496,3.0625 12.7285,1.0528 v 9.5703 h -58.66598 v -9.5703 l 12.82422,-1.0528 3.25391,-3.0625 v -106.6133 h -23.44727 l -2.9668,2.4883 -3.3496,20.959 h -13.49415 z"
       id="text2"
       aria-label="BoLT" />
    <g
       id="g5">
      <path
         d="m489.42 1227.8-54.075-8.4984-20.465 28.373 25.118 48.646 55.999 40.39 54.075 8.4983 20.477-28.39-25.087-48.599zm0.2388 3.8728 52.02 37.521 23.34 45.166-19.027 26.379 0.0321 0.023-50.224-7.893-52.052-37.544-23.351-45.174 19.027-26.379zm0.21093 3.324-46.955-7.3855-17.773 24.641 21.826 42.224 48.621 35.069 46.944 7.3776 17.772-24.641-21.816-42.217z"
         fill="#688d96"
         id="path2" />
      <path
         d="m585.45 1097.2-115.91 111.64 46.962 7.3602s-39.143 84.577-40.199 86.699c-1.0549 2.1227 109.06-108.06 109.06-108.06l-45.289-6.3648z"
         fill="#fae35d"
         id="path3" />
      <path
         d="m571.62 1110.9-98.784 95.139 40.022 6.2724s-33.359 72.078-34.258 73.887c-0.89907 1.809 92.939-92.09 92.939-92.09l-38.596-5.4243z"
         fill="#fff7c7"
         id="path4" />
      <path
         d="m504.97 1327.3 19.06-26.428-55.949-40.352-19.06 26.428z"
         fill="#688d96"
         id="path5" />
    </g>
  </g>
</svg>
